<?xml version="1.0" encoding="UTF-8"?>
<svg id="_레이어_2" data-name="레이어 2" xmlns="http://www.w3.org/2000/svg" viewBox="0 0 191.14 33.77">
  <defs>
    <style>
      .cls-1 {
        fill: #fff;
      }

      .cls-2 {
        fill: #ea002c;
      }
    </style>
  </defs>
  <g id="_레이어_2-2">
    <g>
      <g>
        <path class="cls-2" d="M5.33,32.21c-2.59,0-4.33-1.73-4.33-4.31V5.87C1,3.29,2.74,1.56,5.33,1.56h8.42c8.72,0,10.02,5.13,10.02,8.18,0,2.88-1.08,5.02-3.09,6.23,2.92,1.15,4.35,3.59,4.35,7.4,0,6.03-3.73,8.83-11.74,8.83h-7.95ZM13.48,24.43c3.01,0,3.23-.79,3.23-2.09s-.22-2.16-3.23-2.16h-3.95v4.24h3.95ZM13.14,12.79c2.39,0,2.49-.61,2.49-1.86,0-1.16,0-1.6-2.49-1.6h-3.61v3.46s3.61,0,3.61,0Z"/>
        <path class="cls-1" d="M13.75,2.56c6.65,0,9.02,3.18,9.02,7.18,0,2.95-1.28,5.44-4.68,6.15v.45c4.34.6,5.93,3.11,5.93,7.03,0,4.9-2.62,7.83-10.74,7.83h-7.95c-2.04,0-3.33-1.28-3.33-3.31V5.87c0-2.04,1.3-3.31,3.33-3.31h8.41M8.53,13.79h4.61c2.75,0,3.49-.87,3.49-2.86s-.78-2.6-3.49-2.6h-3.83c-.49,0-.78.29-.78.78v4.68M9.32,25.43h4.16c3.2,0,4.23-.94,4.23-3.09s-1.05-3.16-4.23-3.16h-4.95v5.46c0,.49.29.78.78.78M13.75.56H5.33C2.19.56,0,2.74,0,5.87v22.02c0,3.13,2.19,5.31,5.33,5.31h7.95c8.57,0,12.74-3.22,12.74-9.83,0-3.98-1.53-6.27-3.52-7.56,1.47-1.44,2.27-3.52,2.27-6.07,0-2.76-1.07-9.18-11.02-9.18h0ZM10.53,10.33h2.61c.87,0,1.28.07,1.46.12.01.09.03.24.03.47,0,.41-.04.61-.07.69-.11.05-.48.17-1.42.17h-2.61v-1.46h0ZM10.53,21.19h2.95c2.23,0,2.23.34,2.23,1.16s0,1.09-2.23,1.09h-2.95v-2.24h0Z"/>
      </g>
      <g>
        <path class="cls-2" d="M40.53,32.77c-8.65,0-12.35-4.75-12.35-15.88S31.88,1,40.53,1s12.35,4.75,12.35,15.88-3.69,15.88-12.35,15.88ZM40.53,9.27c-1.88,0-4.01,0-4.01,7.62s2.13,7.62,4.01,7.62,4.01,0,4.01-7.62-1.95-7.62-4.01-7.62Z"/>
        <path class="cls-1" d="M40.53,2c8.17,0,11.35,4.41,11.35,14.88s-3.18,14.88-11.35,14.88-11.35-4.43-11.35-14.88,3.18-14.88,11.35-14.88M40.53,25.5c3.16,0,5.01-1.41,5.01-8.62s-1.72-8.62-5.01-8.62-5.01,1.39-5.01,8.62,1.86,8.62,5.01,8.62M40.53,0c-11.83,0-13.35,9.02-13.35,16.88s1.52,16.88,13.35,16.88,13.35-9.02,13.35-16.88S52.36,0,40.53,0h0ZM40.53,23.5c-1.55,0-3.01,0-3.01-6.62s1.46-6.62,3.01-6.62c1.68,0,3.01,0,3.01,6.62s-1.46,6.62-3.01,6.62h0Z"/>
      </g>
      <g>
        <path class="cls-2" d="M68.05,32.77c-8.65,0-12.35-4.75-12.35-15.88S59.39,1,68.05,1s12.35,4.75,12.35,15.88-3.69,15.88-12.35,15.88ZM68.05,9.27c-1.88,0-4.01,0-4.01,7.62s2.13,7.62,4.01,7.62,4.01,0,4.01-7.62-1.95-7.62-4.01-7.62Z"/>
        <path class="cls-1" d="M68.05,2c8.17,0,11.35,4.41,11.35,14.88s-3.18,14.88-11.35,14.88-11.35-4.43-11.35-14.88,3.18-14.88,11.35-14.88M68.05,25.5c3.16,0,5.01-1.41,5.01-8.62s-1.72-8.62-5.01-8.62-5.01,1.39-5.01,8.62,1.86,8.62,5.01,8.62M68.05,0c-11.83,0-13.35,9.02-13.35,16.88s1.52,16.88,13.35,16.88,13.35-9.02,13.35-16.88S79.88,0,68.05,0h0ZM68.05,23.5c-1.55,0-3.01,0-3.01-6.62s1.46-6.62,3.01-6.62c1.68,0,3.01,0,3.01,6.62s-1.46,6.62-3.01,6.62h0Z"/>
      </g>
      <g>
        <path class="cls-2" d="M102.82,32.21c-1.2,0-2.12-.49-2.76-1.46l-5.96-8.75-2.26,2.88v4.74c0,1.57-1.02,2.59-2.59,2.59h-3.36c-1.57,0-2.59-1.02-2.59-2.59V4.15c0-1.57,1.02-2.59,2.59-2.59h3.36c1.57,0,2.59,1.02,2.59,2.59v8.21l6.92-9.42c.68-.92,1.57-1.37,2.73-1.37h4.07c1.04,0,1.83.42,2.18,1.14.35.73.19,1.61-.46,2.43l-8.08,10.34,9.03,13.25c.57.81.69,1.68.33,2.39-.36.7-1.15,1.1-2.16,1.1h-3.6Z"/>
        <path class="cls-1" d="M105.57,2.56c1.34,0,1.77.89.94,1.95l-8.53,10.92,9.44,13.85c.74,1.05.31,1.93-1.01,1.93h-3.6c-.83,0-1.45-.29-1.93-1.01l-6.74-9.89-3.31,4.23v5.08c0,1.03-.56,1.59-1.59,1.59h-3.36c-1.03,0-1.59-.56-1.59-1.59V4.15c0-1.03.56-1.59,1.59-1.59h3.36c1.03,0,1.59.56,1.59,1.59v11.26l8.73-11.88c.49-.67,1.1-.96,1.92-.96h4.07M105.57.56h-4.07c-1.48,0-2.67.6-3.54,1.78l-5.12,6.96v-5.16c0-2.15-1.44-3.59-3.59-3.59h-3.36c-2.15,0-3.59,1.44-3.59,3.59v25.47c0,2.15,1.44,3.59,3.59,3.59h3.36c2.15,0,3.59-1.44,3.59-3.59v-4.39l1.2-1.53,5.2,7.63c.8,1.22,2.05,1.88,3.58,1.88h3.6c1.39,0,2.51-.6,3.05-1.64.54-1.04.39-2.3-.4-3.43l-8.61-12.62,7.63-9.77c.88-1.12,1.09-2.39.57-3.48-.53-1.08-1.65-1.7-3.08-1.7h0Z"/>
      </g>
      <g>
        <path class="cls-2" d="M114.38,32.21c-1.57,0-2.59-1.02-2.59-2.59v-2.59c0-1.57,1.02-2.59,2.59-2.59h4.44v-15.1h-4.44c-1.57,0-2.59-1.02-2.59-2.59v-2.6c0-1.57,1.02-2.59,2.59-2.59h17.41c1.57,0,2.59,1.02,2.59,2.59v2.6c0,1.57-1.02,2.59-2.59,2.59h-4.44v15.1h4.44c1.57,0,2.59,1.02,2.59,2.59v2.59c0,1.57-1.02,2.59-2.59,2.59h-17.41Z"/>
        <path class="cls-1" d="M131.79,2.56c1.03,0,1.59.56,1.59,1.59v2.6c0,1.03-.56,1.59-1.59,1.59h-5.44v17.1h5.44c1.03,0,1.59.56,1.59,1.59v2.6c0,1.03-.56,1.59-1.59,1.59h-17.41c-1.03,0-1.59-.56-1.59-1.59v-2.6c0-1.03.56-1.59,1.59-1.59h5.44V8.33h-5.44c-1.03,0-1.59-.56-1.59-1.59v-2.6c0-1.03.56-1.59,1.59-1.59h17.41M131.79.56h-17.41c-2.15,0-3.59,1.44-3.59,3.59v2.6c0,2.15,1.44,3.59,3.59,3.59h3.44v13.1h-3.44c-2.15,0-3.59,1.44-3.59,3.59v2.6c0,2.15,1.44,3.59,3.59,3.59h17.41c2.15,0,3.59-1.44,3.59-3.59v-2.6c0-2.15-1.44-3.59-3.59-3.59h-3.44v-13.1h3.44c2.15,0,3.59-1.44,3.59-3.59v-2.6c0-2.15-1.44-3.59-3.59-3.59h0Z"/>
      </g>
      <g>
        <path class="cls-2" d="M143.85,32.21c-2.59,0-4.33-1.73-4.33-4.31V5.87c0-2.58,1.74-4.31,4.33-4.31h15.22c1.57,0,2.59,1.02,2.59,2.59v2.6c0,1.57-1.02,2.59-2.59,2.59h-11.02v3.55s10.95,0,10.95,0c1.57,0,2.59,1.02,2.59,2.59v2.62c0,1.57-1.02,2.59-2.59,2.59h-10.95v3.75h11.06c1.57,0,2.59,1.02,2.59,2.59v2.59c0,1.57-1.02,2.59-2.59,2.59h-15.26Z"/>
        <path class="cls-1" d="M159.07,2.56c1.03,0,1.59.56,1.59,1.59v2.6c0,1.03-.56,1.59-1.59,1.59h-11.23c-.49,0-.78.29-.78.78v4.77h11.95c1.03,0,1.59.58,1.59,1.59v2.62c0,1.01-.56,1.59-1.59,1.59h-11.95v4.97c0,.49.29.78.78.78h11.28c1.03,0,1.59.56,1.59,1.59v2.6c0,1.03-.56,1.59-1.59,1.59h-15.26c-2.04,0-3.34-1.28-3.34-3.31V5.87c0-2.04,1.3-3.31,3.34-3.31h15.22M159.07.56h-15.22c-3.14,0-5.34,2.18-5.34,5.31v22.02c0,3.13,2.19,5.31,5.34,5.31h15.26c2.15,0,3.59-1.44,3.59-3.59v-2.6c0-2.15-1.44-3.59-3.59-3.59h-10.06v-1.75h9.95c2.11,0,3.59-1.48,3.59-3.59v-2.62c0-2.11-1.48-3.59-3.59-3.59h-9.95v-1.55h10.02c2.15,0,3.59-1.44,3.59-3.59v-2.6c0-2.15-1.44-3.59-3.59-3.59h0Z"/>
      </g>
      <g>
        <path class="cls-2" d="M177.1,32.77c-4.37,0-7.34-.88-8.15-1.15-1.53-.55-2.23-1.5-2.23-3.01v-2.15c0-1.53.94-2.55,2.35-2.55.16,0,.34.01.52.04.31.05.64.13,1.02.21,1.37.3,3.25.72,6.54.72,4.26,0,4.66-.64,4.66-2.33,0-1.1-.11-1.73-2.34-2.01l-4.42-.58c-5.78-.74-8.59-3.82-8.59-9.41,0-6.43,3.94-9.55,12.06-9.55,4.22,0,6.76.87,7.6,1.15,1.49.47,2.22,1.45,2.22,2.98v2.17c0,1.51-.94,2.57-2.29,2.57-.19,0-.39-.02-.59-.06-.23-.05-.49-.11-.77-.17-1.38-.32-3.28-.75-5.96-.75-3.92,0-3.93.82-3.95,1.85,0,.88,0,1.47,2.4,1.79l4.38.56c5.78.74,8.59,3.85,8.59,9.5,0,6.85-4.27,10.17-13.04,10.17Z"/>
        <path class="cls-1" d="M178.5,2c3.83,0,6.16.72,7.27,1.1,1.12.36,1.54.98,1.54,2.04v2.17c0,.94-.47,1.57-1.29,1.57-.12,0-.25-.01-.39-.04-1.41-.29-3.6-.94-6.94-.94-4.07,0-4.92.89-4.95,2.84,0,1.63.63,2.44,3.27,2.8l4.39.56c5.06.65,7.72,3.18,7.72,8.5,0,5.68-3.09,9.18-12.04,9.18-3.92,0-6.76-.74-7.83-1.1-1.12-.4-1.54-1.01-1.54-2.06v-2.15c0-.97.51-1.55,1.35-1.55.11,0,.23.01.35.03,1.41.25,3.45.94,7.72.94,3.98,0,5.66-.49,5.66-3.34,0-1.77-.67-2.69-3.22-3l-4.41-.58c-5.06-.65-7.72-3.16-7.72-8.41s2.57-8.55,11.06-8.55M178.5,0c-8.66,0-13.06,3.55-13.06,10.55,0,6.09,3.19,9.59,9.47,10.4l4.4.58c1.16.14,1.4.37,1.41.38h0s.07.14.07.63c0,1,0,1.34-3.66,1.34-3.17,0-4.99-.4-6.32-.69-.39-.09-.74-.16-1.06-.22-.24-.04-.47-.06-.7-.06-1.94,0-3.35,1.49-3.35,3.55v2.15c0,1.93.96,3.26,2.87,3.94.89.3,3.99,1.21,8.51,1.21,9.32,0,14.04-3.76,14.04-11.18,0-6.15-3.19-9.68-9.47-10.49l-4.39-.56c-1.02-.14-1.38-.32-1.49-.38-.01-.06-.03-.19-.03-.43,0-.28.03-.42.05-.48.13-.08.74-.36,2.89-.36,2.56,0,4.39.42,5.73.72.29.07.56.13.8.18.26.06.53.08.79.08,1.91,0,3.29-1.5,3.29-3.57v-2.17c0-1.96-1.01-3.33-2.93-3.94-.84-.29-3.5-1.19-7.88-1.19h0Z"/>
      </g>
    </g>
  </g>
</svg>