<?xml version="1.0" encoding="UTF-8"?>
<svg id="_레이어_2" data-name="레이어 2" xmlns="http://www.w3.org/2000/svg" viewBox="0 0 195.84 60.91">
  <defs>
    <style>
      .cls-1 {
        fill: #ff7a00;
      }

      .cls-2 {
        fill: #fff;
      }

      .cls-3 {
        fill: #ea002c;
      }
    </style>
  </defs>
  <g id="_레이어_1-2" data-name="레이어 1">
    <g>
      <g>
        <path class="cls-3" d="M8.04,58.35c-3.14,0-5.33-2.18-5.33-5.31v-22.02c0-3.13,2.19-5.31,5.33-5.31h8.42c9.95,0,11.02,6.42,11.02,9.18,0,2.55-.8,4.62-2.27,6.07,1.99,1.29,3.52,3.58,3.52,7.56,0,6.62-4.17,9.83-12.74,9.83h-7.95ZM16.18,48.58c2.23,0,2.23-.3,2.23-1.09s0-1.16-2.23-1.16h-2.95v2.24h2.95ZM15.85,36.94c1.03,0,1.37-.14,1.45-.18-.01-.02.04-.21.04-.68,0-.23-.01-.38-.03-.47-.18-.05-.6-.12-1.46-.12h-2.61v1.46h2.61Z"/>
        <path class="cls-2" d="M16.45,27.7c6.65,0,9.02,3.18,9.02,7.18,0,2.95-1.28,5.44-4.68,6.15v.45c4.34.6,5.93,3.11,5.93,7.03,0,4.9-2.62,7.83-10.74,7.83h-7.95c-2.04,0-3.33-1.28-3.33-3.31v-22.02c0-2.04,1.3-3.31,3.33-3.31h8.41M11.24,38.94h4.61c2.75,0,3.49-.87,3.49-2.86s-.78-2.6-3.49-2.6h-3.83c-.49,0-.78.29-.78.78v4.68M12.02,50.58h4.16c3.2,0,4.23-.94,4.23-3.09s-1.05-3.16-4.23-3.16h-4.95v5.46c0,.49.29.78.78.78M16.45,23.7h-8.41c-4.25,0-7.33,3.07-7.33,7.31v22.02c0,4.24,3.08,7.31,7.33,7.31h7.95c12.18,0,14.74-6.44,14.74-11.83,0-3.32-.94-5.98-2.74-7.87.97-1.59,1.49-3.54,1.49-5.76,0-5.41-3.42-11.18-13.02-11.18h0Z"/>
      </g>
      <g>
        <path class="cls-3" d="M43.23,58.91c-11.83,0-13.35-9.02-13.35-16.88s1.52-16.88,13.35-16.88,13.35,9.02,13.35,16.88-1.52,16.88-13.35,16.88ZM43.23,35.41c-1.55,0-3.01,0-3.01,6.62s1.46,6.62,3.01,6.62,3.01,0,3.01-6.62-1.33-6.62-3.01-6.62Z"/>
        <path class="cls-2" d="M43.23,27.14c8.17,0,11.35,4.41,11.35,14.88s-3.18,14.88-11.35,14.88-11.35-4.43-11.35-14.88,3.18-14.88,11.35-14.88M43.23,50.64c3.16,0,5.01-1.41,5.01-8.62s-1.72-8.62-5.01-8.62-5.01,1.39-5.01,8.62,1.86,8.62,5.01,8.62M43.23,23.14c-15.35,0-15.35,14.21-15.35,18.88s0,18.88,15.35,18.88,15.35-14.21,15.35-18.88,0-18.88-15.35-18.88h0ZM42.76,37.43c.1-.01.26-.02.48-.02.23,0,.4.01.51.02.17.42.5,1.63.5,4.59s-.37,4.21-.54,4.59c-.1.01-.26.02-.47.02s-.37-.01-.47-.02c-.17-.38-.54-1.57-.54-4.59s.37-4.2.54-4.59h0Z"/>
      </g>
      <g>
        <path class="cls-3" d="M70.75,58.91c-11.83,0-13.35-9.02-13.35-16.88s1.52-16.88,13.35-16.88,13.35,9.02,13.35,16.88-1.52,16.88-13.35,16.88ZM70.75,35.41c-1.55,0-3.01,0-3.01,6.62s1.46,6.62,3.01,6.62,3.01,0,3.01-6.62-1.33-6.62-3.01-6.62Z"/>
        <path class="cls-2" d="M70.75,27.14c8.17,0,11.35,4.41,11.35,14.88s-3.18,14.88-11.35,14.88-11.35-4.43-11.35-14.88,3.18-14.88,11.35-14.88M70.75,50.64c3.16,0,5.01-1.41,5.01-8.62s-1.72-8.62-5.01-8.62-5.01,1.39-5.01,8.62,1.86,8.62,5.01,8.62M70.75,23.14c-15.35,0-15.35,14.21-15.35,18.88s0,18.88,15.35,18.88,15.35-14.21,15.35-18.88,0-18.88-15.35-18.88h0ZM70.27,37.43c.1-.01.26-.02.48-.02.23,0,.4.01.51.02.17.42.5,1.63.5,4.59s-.37,4.21-.54,4.59c-.1.01-.26.02-.47.02s-.37-.01-.47-.02c-.17-.38-.54-1.57-.54-4.59s.37-4.2.54-4.59h0Z"/>
      </g>
      <g>
        <path class="cls-3" d="M105.52,58.35c-1.53,0-2.78-.66-3.6-1.91l-5.18-7.6-1.2,1.53v4.39c0,2.15-1.44,3.59-3.59,3.59h-3.36c-2.15,0-3.59-1.44-3.59-3.59v-25.47c0-2.15,1.44-3.59,3.59-3.59h3.36c2.15,0,3.59,1.44,3.59,3.59v5.16l5.12-6.97c.86-1.18,2.05-1.78,3.54-1.78h4.07c1.43,0,2.56.62,3.08,1.7.53,1.08.32,2.35-.57,3.48l-7.62,9.76,8.62,12.65c.78,1.11.93,2.37.39,3.41-.54,1.04-1.65,1.64-3.05,1.64h-3.6Z"/>
        <path class="cls-2" d="M108.27,27.7c1.34,0,1.77.89.94,1.95l-8.53,10.92,9.44,13.85c.74,1.05.31,1.93-1.01,1.93h-3.6c-.83,0-1.45-.29-1.93-1.01l-6.74-9.89-3.31,4.23v5.08c0,1.03-.56,1.59-1.59,1.59h-3.36c-1.03,0-1.59-.56-1.59-1.59v-25.47c0-1.03.56-1.59,1.59-1.59h3.36c1.03,0,1.59.56,1.59,1.59v11.26l8.73-11.88c.49-.67,1.1-.96,1.92-.96h4.07M108.27,23.7h-4.07c-2.12,0-3.9.9-5.15,2.6l-1.56,2.13c-.38-2.78-2.59-4.72-5.53-4.72h-3.36c-3.24,0-5.59,2.35-5.59,5.59v25.47c0,3.24,2.35,5.59,5.59,5.59h3.36c3.24,0,5.59-2.35,5.59-5.59v-1.19l2.73,4.01c1.19,1.79,3.05,2.78,5.25,2.78h3.6c2.14,0,3.94-1.02,4.82-2.72.88-1.69.68-3.74-.52-5.48l-7.79-11.42,6.73-8.62c1.35-1.72,1.65-3.81.79-5.58-.86-1.77-2.68-2.83-4.88-2.83h0Z"/>
      </g>
      <g>
        <path class="cls-3" d="M117.08,58.35c-2.15,0-3.59-1.44-3.59-3.59v-2.6c0-2.15,1.44-3.59,3.59-3.59h3.44v-13.1h-3.44c-2.15,0-3.59-1.44-3.59-3.59v-2.6c0-2.15,1.44-3.59,3.59-3.59h17.41c2.15,0,3.59,1.44,3.59,3.59v2.6c0,2.15-1.44,3.59-3.59,3.59h-3.44v13.1h3.44c2.15,0,3.59,1.44,3.59,3.59v2.6c0,2.15-1.44,3.59-3.59,3.59h-17.41Z"/>
        <path class="cls-2" d="M134.5,27.7c1.03,0,1.59.56,1.59,1.59v2.6c0,1.03-.56,1.59-1.59,1.59h-5.44v17.1h5.44c1.03,0,1.59.56,1.59,1.59v2.6c0,1.03-.56,1.59-1.59,1.59h-17.41c-1.03,0-1.59-.56-1.59-1.59v-2.6c0-1.03.56-1.59,1.59-1.59h5.44v-17.1h-5.44c-1.03,0-1.59-.56-1.59-1.59v-2.6c0-1.03.56-1.59,1.59-1.59h17.41M134.5,23.7h-17.41c-3.24,0-5.59,2.35-5.59,5.59v2.6c0,3.24,2.35,5.59,5.59,5.59h1.44v9.1h-1.44c-3.24,0-5.59,2.35-5.59,5.59v2.6c0,3.24,2.35,5.59,5.59,5.59h17.41c3.24,0,5.59-2.35,5.59-5.59v-2.6c0-3.24-2.35-5.59-5.59-5.59h-1.44v-9.1h1.44c3.24,0,5.59-2.35,5.59-5.59v-2.6c0-3.24-2.35-5.59-5.59-5.59h0Z"/>
      </g>
      <g>
        <path class="cls-3" d="M146.55,58.35c-3.14,0-5.34-2.18-5.34-5.31v-22.02c0-3.13,2.19-5.31,5.34-5.31h15.22c2.15,0,3.59,1.44,3.59,3.59v2.6c0,2.15-1.44,3.59-3.59,3.59h-10.02v1.55h9.95c2.11,0,3.59,1.48,3.59,3.59v2.62c0,2.11-1.48,3.59-3.59,3.59h-9.95v1.75h10.06c2.15,0,3.59,1.44,3.59,3.59v2.6c0,2.15-1.44,3.59-3.59,3.59h-15.26Z"/>
        <path class="cls-2" d="M161.77,27.7c1.03,0,1.59.56,1.59,1.59v2.6c0,1.03-.56,1.59-1.59,1.59h-11.23c-.49,0-.78.29-.78.78v4.77h11.95c1.03,0,1.59.58,1.59,1.59v2.62c0,1.01-.56,1.59-1.59,1.59h-11.95v4.97c0,.49.29.78.78.78h11.28c1.03,0,1.59.56,1.59,1.59v2.6c0,1.03-.56,1.59-1.59,1.59h-15.26c-2.04,0-3.34-1.28-3.34-3.31v-22.02c0-2.04,1.3-3.31,3.34-3.31h15.22M161.77,23.7h-15.22c-4.25,0-7.34,3.07-7.34,7.31v22.02c0,4.24,3.08,7.31,7.34,7.31h15.26c3.24,0,5.59-2.35,5.59-5.59v-2.6c0-1.91-.82-3.52-2.16-4.51,1.27-1,2.05-2.56,2.05-4.42v-2.62c0-1.81-.73-3.34-1.94-4.34,1.25-1,2.01-2.55,2.01-4.39v-2.6c0-3.24-2.35-5.59-5.59-5.59h0Z"/>
      </g>
      <g>
        <path class="cls-3" d="M179.8,58.91c-4.52,0-7.62-.92-8.47-1.2-1.95-.7-2.91-2.03-2.91-3.96v-2.15c0-2.06,1.41-3.55,3.35-3.55.22,0,.45.02.68.06.33.06.67.13,1.06.22,1.33.29,3.15.69,6.32.69,3.66,0,3.66-.34,3.66-1.34,0-.5-.08-.64-.08-.64h0s-.25-.23-1.39-.37l-4.43-.58c-6.27-.8-9.46-4.3-9.46-10.4,0-7,4.39-10.55,13.06-10.55,4.38,0,7.04.91,7.92,1.2,1.88.6,2.9,1.97,2.9,3.93v2.17c0,2.07-1.38,3.56-3.29,3.56-.26,0-.53-.03-.8-.09-.23-.05-.5-.11-.79-.18-1.34-.3-3.17-.72-5.73-.72-2.27,0-2.82.31-2.91.37,0,0-.03.15-.03.49,0,.29.03.41.04.44,0,0,0,0,0,0,.03,0,.37.2,1.49.35l4.37.56c6.28.81,9.47,4.33,9.47,10.49,0,7.42-4.72,11.18-14.04,11.18Z"/>
        <path class="cls-2" d="M181.21,27.14c3.83,0,6.16.72,7.27,1.1,1.12.36,1.54.98,1.54,2.04v2.17c0,.94-.47,1.56-1.29,1.56-.12,0-.25-.01-.39-.04-1.41-.29-3.6-.94-6.94-.94-4.07,0-4.92.89-4.95,2.84,0,1.63.63,2.44,3.27,2.8l4.39.56c5.06.65,7.72,3.18,7.72,8.5,0,5.68-3.09,9.18-12.04,9.18-3.92,0-6.76-.74-7.83-1.1-1.12-.4-1.54-1.01-1.54-2.06v-2.15c0-.97.51-1.55,1.35-1.55.11,0,.23.01.35.03,1.41.25,3.45.94,7.72.94,3.98,0,5.66-.49,5.66-3.34,0-1.77-.67-2.69-3.22-3l-4.41-.58c-5.06-.65-7.72-3.16-7.72-8.41s2.57-8.55,11.06-8.55M181.21,23.14c-13.1,0-15.06,7.86-15.06,12.55s1.8,8.28,5.17,10.38c-2.82.22-4.9,2.53-4.9,5.54v2.15c0,2.78,1.49,4.85,4.19,5.82l.04.02.05.02c.92.31,4.28,1.3,9.1,1.3,13.26,0,16.04-7.16,16.04-13.18,0-4.61-1.67-8.1-4.82-10.23,1.81-.86,3.01-2.76,3.01-5.06v-2.17c0-2.82-1.56-4.95-4.28-5.83-.98-.33-3.87-1.3-8.53-1.3h0Z"/>
      </g>
    </g>
    <g>
      <g>
        <path class="cls-1" d="M10.49,26.02c-3.13,0-5.31-.64-5.9-.84-1.57-.57-2.41-1.73-2.41-3.28v-1.45c0-1.76,1.22-3.04,2.91-3.04.18,0,.37.02.57.05.23.04.47.09.75.15.86.19,2.05.45,4.11.45,1.06,0,1.56-.06,1.81-.12,0-.03,0-.05,0-.09-.1-.02-.23-.05-.41-.07l-2.98-.39c-5.73-.73-6.93-4.56-6.93-7.64C2,6.21,3.64,2,11.44,2c3.05,0,4.92.63,5.54.84,1.53.49,2.4,1.65,2.4,3.26v1.46c0,1.74-1.23,3.05-2.87,3.05-.22,0-.45-.02-.68-.07-.16-.03-.34-.07-.54-.12-.77-.17-1.69-.38-2.94-.45l1.31.17c5.74.74,6.94,4.6,6.94,7.7,0,3.73-1.75,8.17-10.1,8.17Z"/>
        <path class="cls-2" d="M11.44,4c2.57,0,4.14.48,4.89.74.75.24,1.04.66,1.04,1.37v1.46c0,.63-.32,1.05-.87,1.05-.08,0-.17,0-.26-.03-.95-.2-2.42-.63-4.67-.63-2.74,0-3.31.6-3.33,1.91,0,1.1.42,1.64,2.2,1.88l2.95.38c3.4.44,5.19,2.14,5.19,5.72,0,3.82-2.08,6.17-8.1,6.17-2.63,0-4.55-.5-5.27-.74-.75-.27-1.04-.68-1.04-1.39v-1.45c0-.65.34-1.04.91-1.04.08,0,.15,0,.24.02.95.17,2.32.63,5.19.63,2.68,0,3.81-.33,3.81-2.24,0-1.19-.45-1.81-2.17-2.02l-2.97-.39c-3.4-.44-5.19-2.12-5.19-5.66s1.73-5.75,7.44-5.75M11.44,0C1.11,0,0,6.82,0,9.75c0,2.69.78,4.9,2.24,6.54-1.26.89-2.06,2.39-2.06,4.16v1.45c0,2.43,1.34,4.3,3.68,5.15l.05.02.05.02c.85.28,3.19.94,6.53.94,10.92,0,12.1-7.11,12.1-10.17,0-2.84-.86-5.16-2.47-6.83.78-.89,1.25-2.09,1.25-3.45v-1.46c0-2.46-1.41-4.39-3.78-5.17-.72-.24-2.81-.94-6.15-.94h0Z"/>
      </g>
      <g>
        <path class="cls-1" d="M34.58,25.64c-1.26,0-2.29-.55-2.97-1.58l-2.97-4.37-.12.15v2.73c0,1.81-1.26,3.07-3.07,3.07h-2.26c-1.81,0-3.07-1.26-3.07-3.07V5.45c0-1.81,1.26-3.07,3.07-3.07h2.26c1.81,0,3.07,1.26,3.07,3.07v1.47l2.26-3.08c.7-.96,1.71-1.46,2.91-1.46h2.74c1.21,0,2.2.57,2.66,1.51.46.95.29,2.08-.46,3.03l-4.83,6.19,5.53,8.11c.66.93.78,2.05.3,2.96-.47.91-1.46,1.46-2.63,1.46h-2.42Z"/>
        <path class="cls-2" d="M36.43,4.38c.9,0,1.19.6.63,1.31l-5.74,7.35,6.35,9.32c.5.71.21,1.29-.68,1.29h-2.42c-.56,0-.98-.2-1.29-.68l-4.53-6.65-2.23,2.84v3.42c0,.69-.38,1.07-1.07,1.07h-2.26c-.69,0-1.07-.38-1.07-1.07V5.45c0-.69.38-1.07,1.07-1.07h2.26c.69,0,1.07.38,1.07,1.07v7.57l5.87-7.99c.33-.45.74-.65,1.29-.65h2.74M36.43.38h-2.74c-1.67,0-3.15.67-4.22,1.9-.91-1.17-2.35-1.9-4.02-1.9h-2.26c-2.89,0-5.07,2.18-5.07,5.07v17.13c0,2.89,2.18,5.07,5.07,5.07h2.26c1.96,0,3.59-1,4.44-2.55l.07.1c1.05,1.58,2.69,2.45,4.61,2.45h2.42c1.93,0,3.58-.95,4.41-2.54.82-1.58.66-3.46-.44-5.03l-4.7-6.89,3.94-5.04c1.22-1.55,1.48-3.47.68-5.13-.8-1.65-2.47-2.64-4.46-2.64h0Z"/>
      </g>
      <g>
        <path class="cls-1" d="M54.06,26.02c-3.13,0-5.31-.64-5.9-.84-1.57-.57-2.41-1.73-2.41-3.28v-1.45c0-1.76,1.22-3.04,2.91-3.04.18,0,.37.02.57.05.23.04.47.09.75.15.86.19,2.05.45,4.11.45,1.06,0,1.56-.06,1.81-.12,0-.03,0-.05,0-.09-.1-.02-.23-.05-.41-.07l-2.98-.39c-5.73-.73-6.93-4.56-6.93-7.64,0-3.54,1.64-7.75,9.44-7.75,3.05,0,4.92.63,5.54.84,1.53.49,2.4,1.65,2.4,3.26v1.46c0,1.74-1.23,3.05-2.87,3.05-.22,0-.45-.02-.68-.07-.16-.03-.34-.07-.54-.12-.77-.17-1.69-.38-2.94-.45l1.31.17c5.74.74,6.94,4.6,6.94,7.7,0,3.73-1.75,8.17-10.1,8.17Z"/>
        <path class="cls-2" d="M55.01,4c2.57,0,4.14.48,4.89.74.75.24,1.04.66,1.04,1.37v1.46c0,.63-.32,1.05-.87,1.05-.08,0-.17,0-.26-.03-.95-.2-2.42-.63-4.67-.63-2.74,0-3.31.6-3.33,1.91,0,1.1.42,1.64,2.2,1.88l2.95.38c3.4.44,5.19,2.14,5.19,5.72,0,3.82-2.08,6.17-8.1,6.17-2.63,0-4.55-.5-5.27-.74-.75-.27-1.04-.68-1.04-1.39v-1.45c0-.65.34-1.04.91-1.04.08,0,.15,0,.24.02.95.17,2.32.63,5.19.63,2.68,0,3.81-.33,3.81-2.24,0-1.19-.45-1.81-2.17-2.02l-2.97-.39c-3.4-.44-5.19-2.12-5.19-5.66s1.73-5.75,7.44-5.75M55.01,0c-10.32,0-11.44,6.82-11.44,9.75,0,2.69.78,4.9,2.24,6.54-1.26.89-2.06,2.39-2.06,4.16v1.45c0,2.43,1.34,4.3,3.68,5.15l.05.02.05.02c.85.28,3.19.94,6.53.94,10.92,0,12.1-7.11,12.1-10.17,0-2.84-.86-5.16-2.47-6.83.78-.89,1.25-2.09,1.25-3.45v-1.46c0-2.46-1.41-4.39-3.78-5.17-.72-.24-2.81-.94-6.15-.94h0Z"/>
      </g>
      <g>
        <path class="cls-1" d="M77.12,25.64c-1.78,0-3.07-1.29-3.07-3.07v-4.43h-1.54v4.43c0,1.81-1.26,3.07-3.07,3.07h-2.26c-1.81,0-3.07-1.26-3.07-3.07V5.45c0-1.81,1.26-3.07,3.07-3.07h2.26c1.81,0,3.07,1.26,3.07,3.07v4.82h1.54v-4.82c0-1.78,1.29-3.07,3.07-3.07h2.27c1.78,0,3.07,1.29,3.07,3.07v17.13c0,1.78-1.29,3.07-3.07,3.07h-2.27Z"/>
        <path class="cls-2" d="M79.39,4.38c.68,0,1.07.38,1.07,1.07v17.13c0,.69-.39,1.07-1.07,1.07h-2.27c-.68,0-1.07-.38-1.07-1.07v-6.43h-5.54v6.43c0,.69-.38,1.07-1.07,1.07h-2.26c-.69,0-1.07-.38-1.07-1.07V5.45c0-.69.38-1.07,1.07-1.07h2.26c.69,0,1.07.38,1.07,1.07v6.82h5.54v-6.82c0-.69.39-1.07,1.07-1.07h2.27M79.39.38h-2.27c-1.57,0-2.92.64-3.84,1.69-.91-1.05-2.27-1.69-3.84-1.69h-2.26c-2.89,0-5.07,2.18-5.07,5.07v17.13c0,2.89,2.18,5.07,5.07,5.07h2.26c1.57,0,2.92-.64,3.84-1.69.91,1.05,2.27,1.69,3.84,1.69h2.27c2.89,0,5.07-2.18,5.07-5.07V5.45c0-2.89-2.18-5.07-5.07-5.07h0Z"/>
      </g>
      <g>
        <path class="cls-1" d="M85.95,25.64c-1.81,0-3.07-1.26-3.07-3.07v-1.75c0-1.81,1.26-3.07,3.07-3.07h1.66v-7.5h-1.66c-1.81,0-3.07-1.26-3.07-3.07v-1.75c0-1.81,1.26-3.07,3.07-3.07h11.71c1.81,0,3.07,1.26,3.07,3.07v1.75c0,1.81-1.26,3.07-3.07,3.07h-1.66v7.5h1.66c1.81,0,3.07,1.26,3.07,3.07v1.75c0,1.81-1.26,3.07-3.07,3.07h-11.71Z"/>
        <path class="cls-2" d="M97.66,4.38c.69,0,1.07.38,1.07,1.07v1.75c0,.69-.38,1.07-1.07,1.07h-3.66v11.5h3.66c.69,0,1.07.38,1.07,1.07v1.75c0,.69-.38,1.07-1.07,1.07h-11.71c-.69,0-1.07-.38-1.07-1.07v-1.75c0-.69.38-1.07,1.07-1.07h3.66v-11.5h-3.66c-.69,0-1.07-.38-1.07-1.07v-1.75c0-.69.38-1.07,1.07-1.07h11.71M97.66.38h-11.71c-2.89,0-5.07,2.18-5.07,5.07v1.75c0,2.77,2.01,4.89,4.73,5.06v3.52c-2.72.16-4.73,2.28-4.73,5.06v1.75c0,2.89,2.18,5.07,5.07,5.07h11.71c2.89,0,5.07-2.18,5.07-5.07v-1.75c0-2.77-2.01-4.89-4.73-5.06v-3.52c2.72-.16,4.73-2.28,4.73-5.06v-1.75c0-2.89-2.18-5.07-5.07-5.07h0Z"/>
      </g>
      <g>
        <path class="cls-1" d="M105.79,25.64c-2.5,0-4.24-1.74-4.24-4.23V6.6c0-2.49,1.74-4.23,4.24-4.23h10.24c1.81,0,3.07,1.26,3.07,3.07v1.75c0,1.47-.84,2.59-2.13,2.95,1.25.38,2.09,1.5,2.09,2.93v1.76c0,1.53-.95,2.7-2.35,2.99,1.46.26,2.42,1.43,2.42,3.01v1.75c0,1.81-1.26,3.07-3.07,3.07h-10.27Z"/>
        <path class="cls-2" d="M116.02,4.38c.69,0,1.07.38,1.07,1.07v1.75c0,.69-.38,1.07-1.07,1.07h-7.56c-.33,0-.53.2-.53.53v3.21h8.04c.69,0,1.07.39,1.07,1.07v1.76c0,.68-.38,1.07-1.07,1.07h-8.04v3.34c0,.33.2.53.53.53h7.59c.69,0,1.07.38,1.07,1.07v1.75c0,.69-.38,1.07-1.07,1.07h-10.27c-1.37,0-2.24-.86-2.24-2.23V6.6c0-1.37.87-2.23,2.24-2.23h10.24M116.02.38h-10.24c-3.56,0-6.24,2.68-6.24,6.23v14.81c0,3.55,2.68,6.23,6.24,6.23h10.27c2.89,0,5.07-2.18,5.07-5.07v-1.75c0-1.17-.36-2.22-.97-3.06.57-.82.89-1.83.89-2.95v-1.76c0-1.1-.31-2.09-.86-2.9.58-.82.91-1.84.91-2.97v-1.75c0-2.89-2.18-5.07-5.07-5.07h0Z"/>
      </g>
      <g>
        <path class="cls-1" d="M124.46,25.64c-2.5,0-4.24-1.74-4.24-4.23V5.45c0-1.81,1.26-3.07,3.07-3.07h2.26c1.81,0,3.07,1.26,3.07,3.07v12.32h6.26c1.81,0,3.07,1.26,3.07,3.07v1.75c0,1.81-1.26,3.07-3.07,3.07h-10.42Z"/>
        <path class="cls-2" d="M125.54,4.38c.69,0,1.07.38,1.07,1.07v13.7c0,.44.18.62.62.62h7.65c.69,0,1.07.38,1.07,1.07v1.75c0,.69-.38,1.07-1.07,1.07h-10.42c-1.37,0-2.24-.86-2.24-2.23V5.45c0-.69.38-1.07,1.07-1.07h2.26M125.54.38h-2.26c-2.89,0-5.07,2.18-5.07,5.07v15.97c0,3.55,2.68,6.23,6.24,6.23h10.42c2.89,0,5.07-2.18,5.07-5.07v-1.75c0-2.89-2.18-5.07-5.07-5.07h-4.26V5.45c0-2.89-2.18-5.07-5.07-5.07h0Z"/>
      </g>
      <g>
        <path class="cls-1" d="M142.22,25.64c-2.5,0-4.24-1.74-4.24-4.23V6.6c0-2.49,1.74-4.23,4.24-4.23h4.73c6.85,0,10.32,3.91,10.32,11.63s-3.47,11.63-10.32,11.63h-4.73ZM146.78,17.76c1.37,0,2.06,0,2.06-3.75s-.69-3.75-2.06-3.75h-.41v7.5h.41Z"/>
        <path class="cls-2" d="M146.95,4.38c6.43,0,8.32,3.91,8.32,9.63s-1.9,9.63-8.32,9.63h-4.73c-1.37,0-2.24-.86-2.24-2.23V6.6c0-1.37.87-2.23,2.24-2.23h4.73M144.9,19.76h1.88c3.36,0,4.06-2,4.06-5.75s-.71-5.75-4.06-5.75h-1.88c-.33,0-.53.2-.53.53v10.45c0,.33.2.53.53.53M146.95.38h-4.73c-3.56,0-6.24,2.68-6.24,6.23v14.81c0,3.55,2.68,6.23,6.24,6.23h4.73c4.6,0,12.32-1.77,12.32-13.63S151.55.38,146.95.38h0Z"/>
      </g>
      <g>
        <path class="cls-1" d="M165.91,26.02c-5.98,0-9.41-3.42-9.41-9.39V5.45c0-1.81,1.26-3.07,3.07-3.07h2.26c1.81,0,3.07,1.26,3.07,3.07v10.84c0,1.52.42,1.52,1.01,1.52s1.01,0,1.01-1.52V5.45c0-1.81,1.26-3.07,3.07-3.07h2.26c1.81,0,3.07,1.26,3.07,3.07v11.18c0,5.97-3.43,9.39-9.41,9.39Z"/>
        <path class="cls-2" d="M172.24,4.38c.69,0,1.07.38,1.07,1.07v11.18c0,4.98-2.59,7.39-7.41,7.39s-7.41-2.41-7.41-7.39V5.45c0-.69.38-1.07,1.07-1.07h2.26c.69,0,1.07.38,1.07,1.07v10.84c0,2.23.95,3.52,3.01,3.52s3.01-1.29,3.01-3.52V5.45c0-.69.38-1.07,1.07-1.07h2.26M172.24.38h-2.26c-1.71,0-3.17.76-4.08,1.98-.91-1.22-2.37-1.98-4.08-1.98h-2.26c-2.89,0-5.07,2.18-5.07,5.07v11.18c0,7.13,4.26,11.39,11.41,11.39s11.41-4.26,11.41-11.39V5.45c0-2.89-2.18-5.07-5.07-5.07h0Z"/>
      </g>
      <g>
        <path class="cls-1" d="M183.74,26.02c-3.13,0-5.31-.64-5.9-.84-1.57-.57-2.41-1.73-2.41-3.28v-1.45c0-1.76,1.22-3.04,2.91-3.04.18,0,.37.02.57.05.23.04.47.09.75.15.86.19,2.05.45,4.11.45,1.06,0,1.56-.06,1.81-.12,0-.03,0-.05,0-.09-.1-.02-.23-.05-.41-.07l-2.98-.39c-5.73-.73-6.93-4.56-6.93-7.64,0-3.54,1.64-7.75,9.44-7.75,3.05,0,4.92.63,5.53.84,1.53.49,2.4,1.65,2.4,3.26v1.46c0,1.74-1.23,3.05-2.87,3.05-.22,0-.45-.02-.68-.07-.16-.03-.34-.07-.54-.12-.73-.17-1.68-.38-2.93-.45l1.3.17c5.74.74,6.94,4.6,6.94,7.7,0,3.73-1.75,8.17-10.1,8.17Z"/>
        <path class="cls-2" d="M184.69,4c2.57,0,4.14.48,4.89.74.75.24,1.04.66,1.04,1.37v1.46c0,.63-.32,1.05-.87,1.05-.08,0-.17,0-.26-.03-.95-.2-2.42-.63-4.67-.63-2.74,0-3.31.6-3.33,1.91,0,1.1.42,1.64,2.2,1.88l2.95.38c3.4.44,5.19,2.14,5.19,5.72,0,3.82-2.08,6.17-8.1,6.17-2.63,0-4.55-.5-5.27-.74-.75-.27-1.04-.68-1.04-1.39v-1.45c0-.65.34-1.04.91-1.04.08,0,.15,0,.24.02.95.17,2.32.63,5.19.63,2.68,0,3.81-.33,3.81-2.24,0-1.19-.45-1.81-2.17-2.02l-2.96-.39c-3.4-.44-5.19-2.12-5.19-5.66s1.73-5.75,7.44-5.75M184.69,0c-10.32,0-11.44,6.82-11.44,9.75,0,2.69.78,4.9,2.24,6.54-1.26.89-2.06,2.39-2.06,4.16v1.45c0,2.43,1.34,4.3,3.68,5.15l.05.02.05.02c.85.28,3.19.94,6.53.94,10.92,0,12.1-7.11,12.1-10.17,0-2.84-.86-5.16-2.47-6.83.78-.89,1.25-2.09,1.25-3.45v-1.46c0-2.46-1.41-4.39-3.78-5.17-.72-.24-2.81-.94-6.15-.94h0Z"/>
      </g>
    </g>
  </g>
</svg>