<?xml version="1.0" encoding="UTF-8"?>
<svg id="_레이어_2" data-name="레이어 2" xmlns="http://www.w3.org/2000/svg" viewBox="0 0 197.14 39.77">
  <defs>
    <style>
      .cls-1 {
        fill: #fff;
      }

      .cls-2 {
        fill: #ea002c;
      }
    </style>
  </defs>
  <g id="_레이어_2-2" data-name="레이어 2">
    <g>
      <g>
        <path class="cls-2" d="M8.33,36.71c-3.44,0-5.83-2.39-5.83-5.81V8.87c0-3.42,2.4-5.81,5.83-5.81h8.42c7.21,0,11.52,3.62,11.52,9.68,0,2.45-.7,4.48-1.99,5.98,1.86,1.41,3.24,3.76,3.24,7.64,0,6.86-4.46,10.33-13.24,10.33h-7.95ZM16.48,25.93c1.04,0,1.52-.12,1.7-.19.01-.08.03-.21.03-.4,0-.23-.02-.38-.04-.46-.17-.07-.63-.2-1.69-.2h-2.45v1.24h2.45ZM16.14,14.29c.49,0,.8-.03.98-.07,0-.08,0-.17,0-.3,0-.02,0-.03,0-.05-.21-.02-.53-.05-.99-.05h-2.11v.46h2.11Z"/>
        <path class="cls-1" d="M16.75,5.56c6.65,0,9.02,3.18,9.02,7.18,0,2.95-1.28,5.44-4.68,6.15v.45c4.34.6,5.93,3.11,5.93,7.03,0,4.9-2.62,7.83-10.74,7.83h-7.95c-2.04,0-3.33-1.28-3.33-3.31V8.87c0-2.04,1.3-3.31,3.33-3.31h8.41M11.53,16.79h4.61c2.75,0,3.49-.87,3.49-2.86s-.78-2.6-3.49-2.6h-3.83c-.49,0-.78.29-.78.78v4.68M12.32,28.43h4.16c3.2,0,4.23-.94,4.23-3.09s-1.05-3.16-4.23-3.16h-4.95v5.46c0,.49.29.78.78.78M16.75.56h-8.41C3.51.56,0,4.06,0,8.87v22.02c0,4.82,3.51,8.31,8.33,8.31h7.95c13.7,0,15.74-8.04,15.74-12.83,0-3.27-.89-5.98-2.54-8,.84-1.62,1.29-3.52,1.29-5.63,0-5.89-3.68-12.18-14.02-12.18h0Z"/>
      </g>
      <g>
        <path class="cls-2" d="M43.53,37.27c-12.27,0-13.85-9.29-13.85-17.38s1.57-17.38,13.85-17.38,13.85,9.29,13.85,17.38-1.57,17.38-13.85,17.38ZM43.53,13.77c-1.35,0-2.51,0-2.51,6.12s1.22,6.12,2.51,6.12,2.51,0,2.51-6.12-1.05-6.12-2.51-6.12Z"/>
        <path class="cls-1" d="M43.53,5c8.17,0,11.35,4.41,11.35,14.88s-3.18,14.88-11.35,14.88-11.35-4.43-11.35-14.88,3.18-14.88,11.35-14.88M43.53,28.5c3.16,0,5.01-1.41,5.01-8.62s-1.72-8.62-5.01-8.62-5.01,1.39-5.01,8.62,1.86,8.62,5.01,8.62M43.53,0c-16.35,0-16.35,14.97-16.35,19.88s0,19.88,16.35,19.88,16.35-14.96,16.35-19.88S59.88,0,43.53,0h0ZM43.53,20.82c0-.29-.01-.6-.01-.93s0-.66.01-.95c0,.29.01.61.01.95s0,.65-.01.93h0Z"/>
      </g>
      <g>
        <path class="cls-2" d="M71.05,37.27c-12.27,0-13.85-9.29-13.85-17.38s1.57-17.38,13.85-17.38,13.85,9.29,13.85,17.38-1.57,17.38-13.85,17.38ZM71.05,13.77c-1.35,0-2.51,0-2.51,6.12s1.22,6.12,2.51,6.12,2.51,0,2.51-6.12-1.05-6.12-2.51-6.12Z"/>
        <path class="cls-1" d="M71.05,5c8.17,0,11.35,4.41,11.35,14.88s-3.18,14.88-11.35,14.88-11.35-4.43-11.35-14.88,3.18-14.88,11.35-14.88M71.05,28.5c3.16,0,5.01-1.41,5.01-8.62s-1.72-8.62-5.01-8.62-5.01,1.39-5.01,8.62,1.86,8.62,5.01,8.62M71.05,0c-16.35,0-16.35,14.97-16.35,19.88s0,19.88,16.35,19.88,16.35-14.96,16.35-19.88S87.4,0,71.05,0h0ZM71.05,20.82c0-.29-.01-.6-.01-.93s0-.66.01-.95c0,.29.01.61.01.95s0,.65-.01.93h0Z"/>
      </g>
      <g>
        <path class="cls-2" d="M105.82,36.71c-1.71,0-3.1-.74-4.01-2.13l-4.79-7.03-.67.86v4.22c0,2.41-1.68,4.09-4.09,4.09h-3.36c-2.41,0-4.09-1.68-4.09-4.09V7.15c0-2.41,1.68-4.09,4.09-4.09h3.36c2.41,0,4.09,1.68,4.09,4.09v3.63l4.21-5.74c.95-1.29,2.31-1.98,3.94-1.98h4.07c1.61,0,2.93.74,3.53,1.98.6,1.24.37,2.74-.63,4.01l-7.4,9.48,8.42,12.35c.89,1.27,1.05,2.71.42,3.92s-1.9,1.91-3.49,1.91h-3.6Z"/>
        <path class="cls-1" d="M108.57,5.56c1.34,0,1.77.89.94,1.95l-8.53,10.92,9.44,13.85c.74,1.05.31,1.93-1.01,1.93h-3.6c-.83,0-1.45-.29-1.93-1.01l-6.74-9.89-3.31,4.23v5.08c0,1.03-.56,1.59-1.59,1.59h-3.36c-1.03,0-1.59-.56-1.59-1.59V7.15c0-1.03.56-1.59,1.59-1.59h3.36c1.03,0,1.59.56,1.59,1.59v11.26l8.73-11.88c.49-.67,1.1-.96,1.92-.96h4.07M108.57.56h-4.07c-2.42,0-4.54,1.07-5.96,3l-.38.52c-1.05-2.15-3.22-3.52-5.91-3.52h-3.36c-3.82,0-6.59,2.77-6.59,6.59v25.47c0,3.82,2.77,6.59,6.59,6.59h3.36c3.21,0,5.67-1.95,6.38-4.84l1.1,1.62c1.38,2.08,3.54,3.22,6.08,3.22h3.6c2.52,0,4.65-1.22,5.71-3.26,1.05-2.03.83-4.46-.59-6.51l-7.37-10.81,6.28-8.04c1.59-2.02,1.93-4.51.9-6.63-1.03-2.12-3.19-3.39-5.78-3.39h0Z"/>
      </g>
      <g>
        <path class="cls-2" d="M117.38,36.71c-2.41,0-4.09-1.68-4.09-4.09v-2.59c0-2.41,1.68-4.09,4.09-4.09h2.94v-12.1h-2.94c-2.41,0-4.09-1.68-4.09-4.09v-2.6c0-2.41,1.68-4.09,4.09-4.09h17.41c2.41,0,4.09,1.68,4.09,4.09v2.6c0,2.41-1.68,4.09-4.09,4.09h-2.94v12.1h2.94c2.41,0,4.09,1.68,4.09,4.09v2.59c0,2.41-1.68,4.09-4.09,4.09h-17.41Z"/>
        <path class="cls-1" d="M134.79,5.56c1.03,0,1.59.56,1.59,1.59v2.6c0,1.03-.56,1.59-1.59,1.59h-5.44v17.1h5.44c1.03,0,1.59.56,1.59,1.59v2.6c0,1.03-.56,1.59-1.59,1.59h-17.41c-1.03,0-1.59-.56-1.59-1.59v-2.6c0-1.03.56-1.59,1.59-1.59h5.44V11.33h-5.44c-1.03,0-1.59-.56-1.59-1.59v-2.6c0-1.03.56-1.59,1.59-1.59h17.41M134.79.56h-17.41c-3.82,0-6.59,2.77-6.59,6.59v2.6c0,3.82,2.77,6.59,6.59,6.59h.44v7.1h-.44c-3.82,0-6.59,2.77-6.59,6.59v2.6c0,3.82,2.77,6.59,6.59,6.59h17.41c3.82,0,6.59-2.77,6.59-6.59v-2.6c0-3.82-2.77-6.59-6.59-6.59h-.44v-7.1h.44c3.82,0,6.59-2.77,6.59-6.59v-2.6c0-3.82-2.77-6.59-6.59-6.59h0Z"/>
      </g>
      <g>
        <path class="cls-2" d="M146.85,36.71c-3.44,0-5.83-2.39-5.83-5.81V8.87c0-3.42,2.4-5.81,5.83-5.81h15.22c2.41,0,4.09,1.68,4.09,4.09v2.6c0,2.41-1.68,4.09-4.09,4.09h-9.52v.55h9.45c2.41,0,4.09,1.68,4.09,4.09v2.62c0,2.41-1.68,4.09-4.09,4.09h-9.45v.75h9.56c2.41,0,4.09,1.68,4.09,4.09v2.59c0,2.41-1.68,4.09-4.09,4.09h-15.26Z"/>
        <path class="cls-1" d="M162.07,5.56c1.03,0,1.59.56,1.59,1.59v2.6c0,1.03-.56,1.59-1.59,1.59h-11.23c-.49,0-.78.29-.78.78v4.77h11.95c1.03,0,1.59.58,1.59,1.59v2.62c0,1.01-.56,1.59-1.59,1.59h-11.95v4.97c0,.49.29.78.78.78h11.28c1.03,0,1.59.56,1.59,1.59v2.6c0,1.03-.56,1.59-1.59,1.59h-15.26c-2.04,0-3.34-1.28-3.34-3.31V8.87c0-2.04,1.3-3.31,3.34-3.31h15.22M162.07.56h-15.22c-4.83,0-8.34,3.5-8.34,8.31v22.02c0,4.82,3.51,8.31,8.34,8.31h15.26c3.82,0,6.59-2.77,6.59-6.59v-2.6c0-1.82-.63-3.4-1.7-4.55,1-1.15,1.58-2.67,1.58-4.38v-2.62c0-1.67-.56-3.16-1.52-4.3,1-1.14,1.58-2.68,1.58-4.43v-2.6c0-3.82-2.77-6.59-6.59-6.59h0Z"/>
      </g>
      <g>
        <path class="cls-2" d="M180.1,37.27c-4.6,0-7.76-.94-8.62-1.22-2.7-.97-3.25-2.94-3.25-4.43v-2.15c0-2.35,1.62-4.05,3.85-4.05.24,0,.5.02.77.07.34.06.69.14,1.09.22,1.31.29,3.09.68,6.21.68,2.15,0,2.87-.18,3.11-.29.02-.09.05-.26.05-.55,0-.13,0-.23-.01-.3-.15-.06-.46-.14-1.01-.21l-4.43-.59c-8.18-1.05-9.89-6.5-9.89-10.89,0-7.33,4.56-11.05,13.56-11.05,4.47,0,7.19.93,8.08,1.23,2.07.66,3.24,2.23,3.24,4.4v2.17c0,2.36-1.59,4.06-3.79,4.07-.3,0-.6-.03-.9-.1-.24-.05-.5-.11-.8-.18-1.32-.3-3.12-.71-5.62-.71-1.46,0-2.14.13-2.44.22,0,.04,0,.2,0,.21.19.06.53.15,1.1.23l4.37.56c8.19,1.05,9.9,6.55,9.9,10.98,0,7.75-4.89,11.67-14.54,11.67Z"/>
        <path class="cls-1" d="M181.5,5c3.83,0,6.16.72,7.27,1.1,1.12.36,1.54.98,1.54,2.04v2.17c0,.94-.47,1.57-1.29,1.57-.12,0-.25-.01-.39-.04-1.41-.29-3.6-.94-6.94-.94-4.07,0-4.92.89-4.95,2.84,0,1.63.63,2.44,3.27,2.8l4.39.56c5.06.65,7.72,3.18,7.72,8.5,0,5.68-3.09,9.18-12.04,9.18-3.92,0-6.76-.74-7.83-1.1-1.12-.4-1.54-1.01-1.54-2.06v-2.15c0-.97.51-1.55,1.35-1.55.11,0,.23.01.35.03,1.41.25,3.45.94,7.72.94,3.98,0,5.66-.49,5.66-3.34,0-1.77-.67-2.69-3.22-3l-4.41-.58c-5.06-.65-7.72-3.16-7.72-8.41s2.57-8.55,11.06-8.55M181.5,0c-13.97,0-16.06,8.49-16.06,13.55,0,4.27,1.34,7.64,3.9,9.95-2.18,1.01-3.63,3.25-3.63,5.96v2.15c0,3.19,1.77,5.65,4.85,6.76l.06.02.06.02c.95.32,4.44,1.35,9.41,1.35,14.83,0,17.04-8.88,17.04-14.18,0-4.4-1.4-7.84-4.07-10.17,1.39-1.18,2.25-3,2.25-5.11v-2.17c0-3.23-1.86-5.76-4.97-6.78-1.03-.35-4.03-1.35-8.85-1.35h0ZM180.06,11.45h0,0Z"/>
      </g>
    </g>
  </g>
</svg>